<svg width="132" height="132" viewBox="0 0 132 132" fill="none" xmlns="http://www.w3.org/2000/svg">
<circle cx="66" cy="66" r="66" fill="white"/>
<mask id="mask0_1612_58" style="mask-type:luminance" maskUnits="userSpaceOnUse" x="22" y="34" width="91" height="67">
<path d="M22.4722 34.4933H112.986V100.384H22.4722V34.4933Z" fill="white"/>
</mask>
<g mask="url(#mask0_1612_58)">
<path d="M34.4416 53.3601L33.9538 50.7822C32.6697 50.9326 31.4027 51.223 30.1828 51.6581C31.5934 52.2666 33.0079 52.8339 34.4416 53.3601ZM45.1692 56.5226C44.7638 51.3236 44.5702 46.0624 44.5846 40.8366C43.2506 41.4039 41.9099 42.0479 40.6142 42.6737C39.2477 43.3407 37.8245 44.0259 36.388 44.6191C35.7229 44.8951 35.0559 45.2104 34.8566 45.6953C34.7272 46.0355 34.7914 46.4917 34.9007 47.0466L36.1551 53.7012C36.1704 53.7923 36.1704 53.8833 36.1551 53.9715C39.1154 54.9912 42.1217 55.8402 45.1692 56.5226ZM51.0122 57.6045C50.2599 50.7822 50.0922 43.8582 50.5042 37.0099C48.8607 37.1719 47.2564 37.3454 45.7049 37.5246C45.5755 43.9166 45.7634 50.3825 46.2713 56.7602C47.8382 57.0899 49.4223 57.3659 51.0122 57.6045ZM69.7878 72.2967C69.8463 72.1463 69.8194 71.8616 69.7993 71.6326L69.2377 65.7044C69.1611 64.9367 69.0758 64.2726 68.7059 63.8759C68.1299 63.2558 66.9598 63.3794 65.8251 63.5059L65.5932 63.5318C63.7685 63.7264 62.2687 63.5414 61.0057 62.9741C60.2054 62.6128 59.595 62.0981 59.1685 61.4129C59.318 63.6823 59.2711 65.9631 59.2212 68.1903C59.1944 69.5195 59.1685 70.8976 59.1829 72.244C59.1944 73.6336 59.2653 75.2886 59.5039 77.029C60.0531 76.1464 60.9731 75.671 61.8049 75.2973C64.0004 74.3131 66.2928 73.5042 68.6091 72.8871C68.979 72.7903 69.6642 72.6111 69.7878 72.2967ZM71.025 96.7294C70.7394 96.6796 70.4577 96.6202 70.1846 96.5589C67.6737 96.0299 64.8323 95.4242 62.5716 93.7433C61.32 92.8146 60.2122 91.5065 59.2653 89.8515C58.7833 89.011 58.2399 88 57.8221 86.9391C57.5662 86.2922 57.4694 85.6578 57.3784 85.0493C57.3142 84.6324 57.249 84.2443 57.1464 83.8533C57.0286 83.4326 56.8292 83.0157 56.6174 82.572C56.3788 82.0804 56.1354 81.5724 55.9917 81.0109C55.7741 80.1819 55.5566 79.2092 55.6265 78.2719C55.7617 76.5144 55.5297 74.8536 55.2863 73.1017C55.1943 72.4491 55.1033 71.7907 55.0333 71.1237C54.6922 68.0293 54.5839 65.1897 54.6979 62.515C54.5043 62.5534 54.3098 62.5649 54.1363 62.5744C53.7693 62.5917 53.3783 62.6003 52.97 62.6003C52.1468 62.6061 51.2383 62.5744 50.2924 62.4891C46.4888 62.1652 43.5534 61.1226 43.6234 60.8926C43.6943 60.6405 46.6652 61.2663 50.3749 61.5806C51.2977 61.6602 52.1852 61.7215 52.9902 61.7627C53.3898 61.7809 53.775 61.8011 54.1363 61.8183C54.3807 61.8308 54.581 61.8308 54.7362 61.7953C54.7803 61.0929 54.833 60.4019 54.9039 59.7263C45.9953 58.8417 37.331 56.5695 29.096 52.9604C27.7937 52.3874 26.4213 51.7491 25.2186 50.7879C24.8516 50.4889 24.5162 50.1707 24.22 49.8363C24.2459 51.429 24.3437 53.0314 24.496 54.6471C24.6168 54.7976 24.7404 54.9442 24.8842 55.0793C25.301 55.4789 25.8243 55.8086 26.4098 56.0904C27.5819 56.6337 28.8373 57.0516 29.9154 57.4953C31.0146 57.9275 31.994 58.3271 32.8134 58.6769C34.4502 59.3765 35.4469 59.8671 35.3971 59.9879C35.353 60.0991 34.2835 59.8231 32.5872 59.2826C31.7382 59.0094 30.7386 58.674 29.625 58.283C29.0749 58.0894 28.4904 57.8776 27.8847 57.6659C27.2848 57.4454 26.6475 57.2193 26.0092 56.9107C25.5272 56.6778 25.0634 56.3961 24.6484 56.0606C25.5512 63.712 27.8406 71.6058 31.512 79.6529C33.6692 84.3669 35.7267 88.091 38.8068 90.966C40.8787 92.8971 43.4499 94.4371 46.4572 95.5267C47.3858 95.8679 48.2617 96.2474 49.1137 96.6202C50.7247 97.3226 52.2494 97.981 54.0012 98.3164C59.6391 99.3974 65.6584 98.8311 71.025 96.7294ZM83.4891 56.9931C83.5418 53.9657 83.4719 50.8856 83.4067 47.9024C83.3367 44.6843 83.2744 41.3656 83.3482 38.0852C82.6132 37.9127 81.8791 37.745 81.1441 37.5945C81.0942 38.0325 81.0415 38.4264 80.9821 38.7618C80.8614 39.4374 80.7262 39.8581 80.6036 39.8466C80.4742 39.8428 80.3832 39.4144 80.3391 38.7234C80.3151 38.3765 80.3065 37.9711 80.3065 37.5121C80.3122 37.4977 80.3122 37.468 80.3122 37.4479C79.651 37.3243 78.9926 37.1949 78.3342 37.0924C78.3984 37.2744 78.4368 37.4536 78.4579 37.6214C78.5163 38.1417 78.4397 38.5299 78.3754 38.7944C78.3045 39.0521 78.2374 39.1882 78.1694 39.1815C78.1052 39.1815 78.064 39.032 78.0199 38.7733C77.9758 38.5174 77.949 38.1446 77.8321 37.7507C77.7372 37.4594 77.5877 37.1594 77.35 36.9515C76.2853 36.7953 75.2158 36.663 74.1492 36.5576C74.0582 37.0952 73.9671 37.583 73.8722 38.0009C73.6787 38.9113 73.4966 39.47 73.3701 39.4527C73.2464 39.4374 73.2052 38.8528 73.2378 37.9184C73.2522 37.5006 73.279 37.0099 73.3289 36.4752C72.0265 36.3631 70.7222 36.2691 69.4256 36.2279C69.2521 36.2193 69.0787 36.2193 68.9119 36.2164C68.8966 36.5336 68.8764 36.7895 68.8525 37.0483C68.7557 38.1734 68.6321 38.8643 68.5084 38.8643C68.3829 38.8643 68.2737 38.1676 68.2094 37.0425C68.1941 36.7838 68.1769 36.5011 68.1625 36.1992C66.5074 36.1666 64.8582 36.1609 63.2213 36.1925C63.1686 36.3343 63.1245 36.5394 63.0862 36.7512C63.0153 37.0713 62.9511 37.3712 62.8926 37.6472C62.6425 38.7503 62.4221 39.4201 62.2984 39.3991C62.1719 39.3818 62.1662 38.6765 62.2544 37.5504C62.2812 37.2687 62.3071 36.963 62.3397 36.6304C62.3569 36.5078 62.3665 36.3717 62.3895 36.2193C61.2644 36.2548 60.147 36.3017 59.0334 36.3573C58.9893 38.7292 58.8599 40.3516 58.6865 40.3545C58.513 40.3545 58.3367 38.756 58.2274 36.4043C56.9078 36.4809 55.6007 36.5691 54.3127 36.6688C54.2159 36.7244 54.1459 36.7953 54.0807 36.9189C54.0137 37.0598 53.9696 37.2543 53.9399 37.4536C53.8431 38.3056 53.7463 39.1231 53.6485 39.7872C53.4607 41.1126 53.2815 41.9329 53.1579 41.9329C53.0285 41.9243 52.9844 41.0867 53.0112 39.7345C53.0227 39.0521 53.0496 38.274 53.108 37.3569C53.1253 37.1719 53.1521 36.9716 53.2163 36.7627C52.6701 36.8096 52.1324 36.8537 51.5948 36.9074C51.1626 43.84 51.3418 50.8559 52.1142 57.7655C54.4986 58.0827 56.9021 58.3099 59.3238 58.4296C59.7177 58.445 60.0444 58.7478 60.0914 59.1379C60.238 60.3578 60.7143 61.066 61.6698 61.4954C62.6655 61.9419 63.8912 62.0828 65.4197 61.9218L65.6517 61.895C67.0364 61.7426 68.7672 61.5538 69.8961 62.7738C70.6628 63.6027 70.7778 64.7757 70.8544 65.5481L71.416 71.4764C71.4534 71.8616 71.5004 72.3849 71.2895 72.9024C70.8631 73.9748 69.6699 74.2862 69.0259 74.4539C66.7978 75.0443 64.5994 75.8205 62.4987 76.7674C62.5246 76.7674 62.5629 76.7731 62.5955 76.7789C63.5769 76.9408 64.447 77.0932 65.1734 77.2283C66.6282 77.5014 67.4974 77.7247 67.4802 77.8369C67.4687 77.9451 66.5717 77.9308 65.0968 77.81C64.3617 77.7516 63.4743 77.6663 62.493 77.5637C62.0042 77.5072 61.5193 77.4698 61.1283 77.6164C61.1024 77.6279 61.0814 77.6423 61.0555 77.6548C60.9731 77.7458 60.8964 77.8369 60.8379 77.9451C60.8169 77.9835 60.8054 78.0333 60.791 78.0688C61.0315 78.1311 61.2702 78.1838 61.5136 78.2394C66.9013 79.5034 71.2215 80.7291 71.1659 80.9725C71.1074 81.2169 66.6953 80.3937 61.3085 79.1296C61.0756 79.0769 60.8581 79.0214 60.6319 78.9686C60.6319 79.1948 60.6434 79.4267 60.6645 79.6529C60.9616 82.6659 62.1279 85.0109 64.2381 86.8155C65.7139 88.0853 67.3977 89.0695 69.1994 89.7403C74.0783 86.8864 78.064 81.928 80.4359 75.7084C81.6932 72.4175 82.5432 68.7576 83.0253 64.493C82.2519 63.9909 81.0147 63.8816 79.8503 63.6296C76.0534 62.9003 72.6264 62.1921 70.152 61.6334C67.6919 61.0785 66.172 60.6721 66.172 60.5428C66.1931 60.4201 67.7562 60.6022 70.2632 60.9961C72.7702 61.3957 76.2297 62.0071 80.0362 62.7354C80.6889 62.8677 81.3175 62.9712 81.9548 63.1207C82.3372 63.2175 82.7426 63.3469 83.1278 63.5385C83.1336 63.482 83.1336 63.4235 83.1364 63.3651C83.0454 63.1533 82.8834 62.9712 82.6669 62.8006C82.2021 62.4623 81.5638 62.2122 81.0204 61.9659C79.9011 61.4781 78.8776 61.1101 78.0257 60.8284C76.3179 60.285 75.2685 60.0464 75.2685 59.9256C75.2839 59.8346 76.3831 59.8786 78.1752 60.2936C79.0693 60.5054 80.133 60.814 81.306 61.2606C81.8849 61.504 82.4963 61.6956 83.1547 62.1365C83.1863 62.1537 83.2131 62.1806 83.2399 62.2007C83.3693 60.5552 83.4508 58.8235 83.4891 56.9931ZM85.7699 82.525C85.7699 82.5183 85.7699 82.5183 85.7699 82.5183C85.2496 82.5979 84.7388 82.6803 84.2242 82.7569C82.8077 84.8432 81.2936 86.8864 79.7123 88.8376C78.8364 89.9224 77.8666 91.0302 76.5565 91.6685C75.1775 92.3326 73.4908 92.4591 71.3978 92.047C68.3829 91.4596 65.5405 90.0748 63.1772 88.0469C60.9788 86.1571 59.6707 83.7622 59.1829 80.7732C58.2984 77.719 58.1249 74.6188 58.1048 72.2555C58.0866 70.8918 58.1134 69.5041 58.1393 68.1701C58.2016 65.4657 58.2543 62.6827 57.9457 59.9697C57.2931 59.9256 56.6376 59.8786 55.9849 59.8173C55.6179 63.2232 55.6591 66.8831 56.1086 71.0059C56.1795 71.6642 56.2705 72.314 56.3587 72.958C56.5992 74.6859 56.8494 76.476 56.7085 78.3515C56.65 79.1354 56.8379 79.9998 57.0314 80.7406C57.1579 81.1987 57.3669 81.6366 57.5902 82.1014C57.8163 82.5691 58.0425 83.054 58.1901 83.5677C58.307 84.0143 58.3779 84.4589 58.4421 84.8844C58.537 85.4633 58.6213 86.0105 58.8274 86.5452C59.2155 87.539 59.7474 88.506 60.2054 89.3167C61.0881 90.8568 62.0694 92.0269 63.2156 92.8789C65.2846 94.4189 68.0092 94.992 70.4107 95.5066C71.2569 95.6858 72.13 95.8478 72.9561 95.8947C74.2134 95.3006 75.4247 94.6134 76.5652 93.8573C77.9816 92.9114 79.3654 91.565 80.6477 90.2578C82.134 88.735 83.3597 86.8481 84.5471 85.0253C84.8241 84.5998 85.1001 84.1791 85.3761 83.7622C85.5764 83.4651 85.6732 82.9889 85.7699 82.525ZM89.1644 61.4455C90.1198 53.8891 89.9521 46.2856 89.656 39.8428C87.9272 39.2764 86.182 38.7761 84.4302 38.3382C84.3593 41.5246 84.4244 44.7514 84.4887 47.8784C84.5529 50.8674 84.6238 53.9657 84.5711 57.0132C84.4244 64.8284 83.4364 70.8918 81.4469 76.0908C79.1162 82.204 75.2743 87.1451 70.5516 90.184C70.934 90.2866 71.3183 90.3834 71.7064 90.4571C73.4467 90.7983 74.7989 90.7188 75.8474 90.2099C76.8584 89.7164 77.6586 88.7992 78.4521 87.815C80.0746 85.8102 81.629 83.7095 83.0722 81.5667C86.1437 75.8819 88.1974 69.1199 89.1644 61.4455ZM103.12 58.3156C103.205 56.9222 103.287 55.6026 102.817 54.4478C102.185 52.902 100.607 51.8584 99.3045 51.1262C99.0074 50.9585 98.7046 50.7917 98.4027 50.6298C97.0562 49.9005 95.6657 49.1482 94.5579 47.9876C92.8032 46.139 92.0624 43.3675 92.6067 40.8749C91.9924 40.6487 91.3752 40.4369 90.7581 40.2251C91.0398 46.6211 91.1864 54.1066 90.2406 61.5806C89.3091 68.9435 87.3867 75.4765 84.5442 81.0636C86.1696 80.8173 87.7978 80.5556 89.4231 80.2969C91.3628 79.9883 93.3034 79.6769 95.2335 79.3884C96.3682 79.2149 97.5469 79.0444 98.5081 78.5039C99.108 78.1684 99.7837 77.5311 99.9744 76.7405C98.0117 76.0237 96.0596 75.2771 94.1381 74.498C93.8084 74.3629 93.6091 74.0332 93.635 73.6806L93.6676 73.2694C93.9263 69.9747 94.1966 66.5688 95.3954 63.3909C95.8075 62.3004 96.3365 61.2194 97.4175 60.6664C98.5694 60.0789 99.8392 60.3636 100.941 60.6789C101.676 60.8897 102.406 61.1226 103.137 61.3545C103.002 60.3377 103.061 59.3142 103.12 58.3156ZM108.415 77.9336C109.677 73.9518 110.626 69.8923 111.178 66.1155C107.72 64.5783 104.131 63.2769 100.492 62.239C99.6926 62.0071 98.7784 61.7924 98.1526 62.1154C97.5651 62.4125 97.2115 63.1791 96.9154 63.964C95.819 66.8649 95.5488 70.0926 95.2987 73.2167C99.5958 74.9417 104.001 76.5259 108.415 77.9336ZM112.398 64.8869C112.724 65.0345 112.919 65.3814 112.869 65.7369C112.286 70.0188 111.194 74.6715 109.709 79.2006C109.594 79.5446 109.28 79.7621 108.941 79.7621C108.86 79.7621 108.775 79.7468 108.692 79.7238C106.291 78.9686 103.892 78.1569 101.509 77.3021C101.194 78.3448 100.412 79.2974 99.2987 79.9174C98.0759 80.5997 96.6921 80.8115 95.4779 80.9936C93.5526 81.2811 91.6187 81.5897 89.6819 81.9011C88.9535 82.0161 88.2242 82.134 87.4949 82.2481C87.4451 82.433 87.401 82.6362 87.3598 82.848C87.2333 83.4383 87.0953 84.1024 86.7254 84.6583C86.4523 85.0694 86.182 85.4901 85.9051 85.9137C84.6794 87.8006 83.4067 89.7547 81.8024 91.3915C80.4617 92.7677 79.007 94.1784 77.4641 95.2095C77.2619 95.3389 77.0644 95.4568 76.8651 95.5861C76.8852 95.7769 76.8143 95.9771 76.6409 96.0998C76.0093 96.5445 75.3011 96.7879 74.5603 96.9058C73.8195 97.291 73.0586 97.6523 72.2795 97.9753C68.3292 99.6303 64.0062 100.474 59.709 100.474C57.6869 100.474 55.6706 100.289 53.6984 99.9121C51.7683 99.545 50.0922 98.81 48.4668 98.1046C47.6388 97.7434 46.7802 97.3696 45.8985 97.0524C42.689 95.8861 39.9319 94.2311 37.7009 92.1505C34.4301 89.0963 32.2729 85.217 30.0362 80.3228C24.7404 68.726 22.2478 57.3985 22.6263 46.6527C22.6417 46.2416 22.9617 45.9061 23.3671 45.8745C23.7821 45.8362 24.1491 46.1179 24.2315 46.5176C24.4462 47.5938 25.1602 48.6575 26.2364 49.5219C26.8411 50.0097 27.5234 50.4036 28.2201 50.7592C28.2843 50.6911 28.3667 50.6355 28.4578 50.5914C30.1186 49.8746 31.8647 49.4098 33.651 49.1923L33.3041 47.3494C33.1929 46.7322 33.0309 45.8946 33.3549 45.0954C33.8187 43.9349 35.0415 43.426 35.7641 43.1231C37.1604 42.5443 38.5596 41.8687 39.906 41.2161C41.1222 40.6248 42.3747 40.0191 43.6445 39.4757C43.6675 39.1029 43.7269 38.7024 43.7796 38.3056C43.8496 37.7709 43.9262 37.216 43.9119 36.8633C43.8879 36.4369 44.1965 36.0698 44.6229 36.0161C51.9849 35.1498 60.6971 34.3055 69.4821 34.6055C77.7228 34.8824 85.9319 36.5691 93.8765 39.6195C94.2819 39.7786 94.4937 40.2251 94.3518 40.6372C93.6436 42.7504 94.2023 45.2506 95.7366 46.8674C96.6652 47.8468 97.8823 48.5051 99.1751 49.2038C99.4808 49.3715 99.7952 49.5392 100.098 49.7126C101.632 50.5771 103.499 51.8258 104.318 53.8364C104.93 55.3323 104.833 56.8992 104.742 58.4181C104.66 59.6736 104.589 60.8552 104.913 61.9362C107.455 62.8006 109.962 63.7848 112.398 64.8869Z" fill="#00A5B5"/>
</g>
<path d="M71.3509 46.4792C76.4416 46.5233 80.5212 47.2028 80.4887 47.4404C80.4618 47.6992 76.3764 47.4318 71.3452 47.3935C66.3072 47.3379 62.2219 47.5382 62.1989 47.2727C62.172 47.0351 66.2632 46.4294 71.3509 46.4792Z" fill="#00A5B5"/>
<path d="M80.5057 50.2799C80.4856 50.4093 78.9542 50.2684 76.4855 50.0567C74.014 49.8477 70.6042 49.5861 66.8303 49.4567C63.0593 49.3331 59.6447 49.3599 57.1636 49.4098C54.6863 49.451 53.1463 49.4836 53.1348 49.3542C53.1348 49.2363 54.6595 48.9747 57.1281 48.7658C59.615 48.5549 63.0593 48.4198 66.8629 48.5492C70.6694 48.6776 74.0964 49.0427 76.5593 49.4184C79.0126 49.7979 80.5057 50.1534 80.5057 50.2799Z" fill="#00A5B5"/>
<path d="M61.7667 95.6417C61.7907 95.7538 61.0173 96.0356 59.7092 96.2416C58.4049 96.4467 56.5592 96.5262 54.5457 96.2675C52.5409 95.9972 50.7804 95.4481 49.5691 94.9095C48.3587 94.3834 47.6831 93.9138 47.7358 93.8046C47.8498 93.5554 50.789 94.875 54.6655 95.3599C58.54 95.8918 61.7198 95.3714 61.7667 95.6417Z" fill="#00A5B5"/>
<path d="M44.7052 89.2755C49.0081 91.2804 52.8932 91.7653 52.8491 92.047C52.8376 92.162 51.8496 92.1879 50.2712 91.9387C48.6995 91.6972 46.5423 91.1242 44.32 90.1016C42.1043 89.0791 40.2672 87.815 39.0558 86.7772C37.8455 85.7402 37.2187 84.9669 37.2982 84.8844C37.4842 84.6765 40.3812 87.3129 44.7052 89.2755Z" fill="#00A5B5"/>
<mask id="mask1_1612_58" style="mask-type:luminance" maskUnits="userSpaceOnUse" x="22" y="34" width="91" height="67">
<path d="M22.4722 34.4933H112.986V100.384H22.4722V34.4933Z" fill="white"/>
</mask>
<g mask="url(#mask1_1612_58)">
<path d="M34.4416 53.3601L33.9538 50.7822C32.6697 50.9326 31.4027 51.223 30.1828 51.6581C31.5934 52.2666 33.0079 52.8339 34.4416 53.3601ZM45.1692 56.5226C44.7638 51.3236 44.5702 46.0624 44.5846 40.8366C43.2506 41.4039 41.9099 42.0479 40.6142 42.6737C39.2477 43.3407 37.8245 44.0259 36.388 44.6191C35.7229 44.8951 35.0559 45.2104 34.8566 45.6953C34.7272 46.0355 34.7914 46.4917 34.9007 47.0466L36.1551 53.7012C36.1704 53.7923 36.1704 53.8833 36.1551 53.9715C39.1154 54.9912 42.1217 55.8402 45.1692 56.5226ZM51.0122 57.6045C50.2599 50.7822 50.0922 43.8582 50.5042 37.0099C48.8607 37.1719 47.2564 37.3454 45.7049 37.5246C45.5755 43.9166 45.7634 50.3825 46.2713 56.7602C47.8382 57.0899 49.4223 57.3659 51.0122 57.6045ZM69.7878 72.2967C69.8463 72.1463 69.8194 71.8616 69.7993 71.6326L69.2377 65.7044C69.1611 64.9367 69.0758 64.2726 68.7059 63.8759C68.1299 63.2558 66.9598 63.3794 65.8251 63.5059L65.5932 63.5318C63.7685 63.7264 62.2687 63.5414 61.0057 62.9741C60.2054 62.6128 59.595 62.0981 59.1685 61.4129C59.318 63.6823 59.2711 65.9631 59.2212 68.1903C59.1944 69.5195 59.1685 70.8976 59.1829 72.244C59.1944 73.6336 59.2653 75.2886 59.5039 77.029C60.0531 76.1464 60.9731 75.671 61.8049 75.2973C64.0004 74.3131 66.2928 73.5042 68.6091 72.8871C68.979 72.7903 69.6642 72.6111 69.7878 72.2967ZM71.025 96.7294C70.7394 96.6796 70.4577 96.6202 70.1846 96.5589C67.6737 96.0299 64.8323 95.4242 62.5716 93.7433C61.32 92.8146 60.2122 91.5065 59.2653 89.8515C58.7833 89.011 58.2399 88 57.8221 86.9391C57.5662 86.2922 57.4694 85.6578 57.3784 85.0493C57.3142 84.6324 57.249 84.2443 57.1464 83.8533C57.0286 83.4326 56.8292 83.0157 56.6174 82.572C56.3788 82.0804 56.1354 81.5724 55.9917 81.0109C55.7741 80.1819 55.5566 79.2092 55.6265 78.2719C55.7617 76.5144 55.5297 74.8536 55.2863 73.1017C55.1943 72.4491 55.1033 71.7907 55.0333 71.1237C54.6922 68.0293 54.5839 65.1897 54.6979 62.515C54.5043 62.5534 54.3098 62.5649 54.1363 62.5744C53.7693 62.5917 53.3783 62.6003 52.97 62.6003C52.1468 62.6061 51.2383 62.5744 50.2924 62.4891C46.4888 62.1652 43.5534 61.1226 43.6234 60.8926C43.6943 60.6405 46.6652 61.2663 50.3749 61.5806C51.2977 61.6602 52.1852 61.7215 52.9902 61.7627C53.3898 61.7809 53.775 61.8011 54.1363 61.8183C54.3807 61.8308 54.581 61.8308 54.7362 61.7953C54.7803 61.0929 54.833 60.4019 54.9039 59.7263C45.9953 58.8417 37.331 56.5695 29.096 52.9604C27.7937 52.3874 26.4213 51.7491 25.2186 50.7879C24.8516 50.4889 24.5162 50.1707 24.22 49.8363C24.2459 51.429 24.3437 53.0314 24.496 54.6471C24.6168 54.7976 24.7404 54.9442 24.8842 55.0793C25.301 55.4789 25.8243 55.8086 26.4098 56.0904C27.5819 56.6337 28.8373 57.0516 29.9154 57.4953C31.0146 57.9275 31.994 58.3271 32.8134 58.6769C34.4502 59.3765 35.4469 59.8671 35.3971 59.9879C35.353 60.0991 34.2835 59.8231 32.5872 59.2826C31.7382 59.0094 30.7386 58.674 29.625 58.283C29.0749 58.0894 28.4904 57.8776 27.8847 57.6659C27.2848 57.4454 26.6475 57.2193 26.0092 56.9107C25.5272 56.6778 25.0634 56.3961 24.6484 56.0606C25.5512 63.712 27.8406 71.6058 31.512 79.6529C33.6692 84.3669 35.7267 88.091 38.8068 90.966C40.8787 92.8971 43.4499 94.4371 46.4572 95.5267C47.3858 95.8679 48.2617 96.2474 49.1137 96.6202C50.7247 97.3226 52.2494 97.981 54.0012 98.3164C59.6391 99.3974 65.6584 98.8311 71.025 96.7294ZM83.4891 56.9931C83.5418 53.9657 83.4719 50.8856 83.4067 47.9024C83.3367 44.6843 83.2744 41.3656 83.3482 38.0852C82.6132 37.9127 81.8791 37.745 81.1441 37.5945C81.0942 38.0325 81.0415 38.4264 80.9821 38.7618C80.8614 39.4374 80.7262 39.8581 80.6036 39.8466C80.4742 39.8428 80.3832 39.4144 80.3391 38.7234C80.3151 38.3765 80.3065 37.9711 80.3065 37.5121C80.3122 37.4977 80.3122 37.468 80.3122 37.4479C79.651 37.3243 78.9926 37.1949 78.3342 37.0924C78.3984 37.2744 78.4368 37.4536 78.4579 37.6214C78.5163 38.1417 78.4397 38.5299 78.3754 38.7944C78.3045 39.0521 78.2374 39.1882 78.1694 39.1815C78.1052 39.1815 78.064 39.032 78.0199 38.7733C77.9758 38.5174 77.949 38.1446 77.8321 37.7507C77.7372 37.4594 77.5877 37.1594 77.35 36.9515C76.2853 36.7953 75.2158 36.663 74.1492 36.5576C74.0582 37.0952 73.9671 37.583 73.8722 38.0009C73.6787 38.9113 73.4966 39.47 73.3701 39.4527C73.2464 39.4374 73.2052 38.8528 73.2378 37.9184C73.2522 37.5006 73.279 37.0099 73.3289 36.4752C72.0265 36.3631 70.7222 36.2691 69.4256 36.2279C69.2521 36.2193 69.0787 36.2193 68.9119 36.2164C68.8966 36.5336 68.8764 36.7895 68.8525 37.0483C68.7557 38.1734 68.6321 38.8643 68.5084 38.8643C68.3829 38.8643 68.2737 38.1676 68.2094 37.0425C68.1941 36.7838 68.1769 36.5011 68.1625 36.1992C66.5074 36.1666 64.8582 36.1609 63.2213 36.1925C63.1686 36.3343 63.1245 36.5394 63.0862 36.7512C63.0153 37.0713 62.9511 37.3712 62.8926 37.6472C62.6425 38.7503 62.4221 39.4201 62.2984 39.3991C62.1719 39.3818 62.1662 38.6765 62.2544 37.5504C62.2812 37.2687 62.3071 36.963 62.3397 36.6304C62.3569 36.5078 62.3665 36.3717 62.3895 36.2193C61.2644 36.2548 60.147 36.3017 59.0334 36.3573C58.9893 38.7292 58.8599 40.3516 58.6865 40.3545C58.513 40.3545 58.3367 38.756 58.2274 36.4043C56.9078 36.4809 55.6007 36.5691 54.3127 36.6688C54.2159 36.7244 54.1459 36.7953 54.0807 36.9189C54.0137 37.0598 53.9696 37.2543 53.9399 37.4536C53.8431 38.3056 53.7463 39.1231 53.6485 39.7872C53.4607 41.1126 53.2815 41.9329 53.1579 41.9329C53.0285 41.9243 52.9844 41.0867 53.0112 39.7345C53.0227 39.0521 53.0496 38.274 53.108 37.3569C53.1253 37.1719 53.1521 36.9716 53.2163 36.7627C52.6701 36.8096 52.1324 36.8537 51.5948 36.9074C51.1626 43.84 51.3418 50.8559 52.1142 57.7655C54.4986 58.0827 56.9021 58.3099 59.3238 58.4296C59.7177 58.445 60.0444 58.7478 60.0914 59.1379C60.238 60.3578 60.7143 61.066 61.6698 61.4954C62.6655 61.9419 63.8912 62.0828 65.4197 61.9218L65.6517 61.895C67.0364 61.7426 68.7672 61.5538 69.8961 62.7738C70.6628 63.6027 70.7778 64.7757 70.8544 65.5481L71.416 71.4764C71.4534 71.8616 71.5004 72.3849 71.2895 72.9024C70.8631 73.9748 69.6699 74.2862 69.0259 74.4539C66.7978 75.0443 64.5994 75.8205 62.4987 76.7674C62.5246 76.7674 62.5629 76.7731 62.5955 76.7789C63.5769 76.9408 64.447 77.0932 65.1734 77.2283C66.6282 77.5014 67.4974 77.7247 67.4802 77.8369C67.4687 77.9451 66.5717 77.9308 65.0968 77.81C64.3617 77.7516 63.4743 77.6663 62.493 77.5637C62.0042 77.5072 61.5193 77.4698 61.1283 77.6164C61.1024 77.6279 61.0814 77.6423 61.0555 77.6548C60.9731 77.7458 60.8964 77.8369 60.8379 77.9451C60.8169 77.9835 60.8054 78.0333 60.791 78.0688C61.0315 78.1311 61.2702 78.1838 61.5136 78.2394C66.9013 79.5034 71.2215 80.7291 71.1659 80.9725C71.1074 81.2169 66.6953 80.3937 61.3085 79.1296C61.0756 79.0769 60.8581 79.0214 60.6319 78.9686C60.6319 79.1948 60.6434 79.4267 60.6645 79.6529C60.9616 82.6659 62.1279 85.0109 64.2381 86.8155C65.7139 88.0853 67.3977 89.0695 69.1994 89.7403C74.0783 86.8864 78.064 81.928 80.4359 75.7084C81.6932 72.4175 82.5432 68.7576 83.0253 64.493C82.2519 63.9909 81.0147 63.8816 79.8503 63.6296C76.0534 62.9003 72.6264 62.1921 70.152 61.6334C67.6919 61.0785 66.172 60.6721 66.172 60.5428C66.1931 60.4201 67.7562 60.6022 70.2632 60.9961C72.7702 61.3957 76.2297 62.0071 80.0362 62.7354C80.6889 62.8677 81.3175 62.9712 81.9548 63.1207C82.3372 63.2175 82.7426 63.3469 83.1278 63.5385C83.1336 63.482 83.1336 63.4235 83.1364 63.3651C83.0454 63.1533 82.8834 62.9712 82.6669 62.8006C82.2021 62.4623 81.5638 62.2122 81.0204 61.9659C79.9011 61.4781 78.8776 61.1101 78.0257 60.8284C76.3179 60.285 75.2685 60.0464 75.2685 59.9256C75.2839 59.8346 76.3831 59.8786 78.1752 60.2936C79.0693 60.5054 80.133 60.814 81.306 61.2606C81.8849 61.504 82.4963 61.6956 83.1547 62.1365C83.1863 62.1537 83.2131 62.1806 83.2399 62.2007C83.3693 60.5552 83.4508 58.8235 83.4891 56.9931ZM85.7699 82.525C85.7699 82.5183 85.7699 82.5183 85.7699 82.5183C85.2496 82.5979 84.7388 82.6803 84.2242 82.7569C82.8077 84.8432 81.2936 86.8864 79.7123 88.8376C78.8364 89.9224 77.8666 91.0302 76.5565 91.6685C75.1775 92.3326 73.4908 92.4591 71.3978 92.047C68.3829 91.4596 65.5405 90.0748 63.1772 88.0469C60.9788 86.1571 59.6707 83.7622 59.1829 80.7732C58.2984 77.719 58.1249 74.6188 58.1048 72.2555C58.0866 70.8918 58.1134 69.5041 58.1393 68.1701C58.2016 65.4657 58.2543 62.6827 57.9457 59.9697C57.2931 59.9256 56.6376 59.8786 55.9849 59.8173C55.6179 63.2232 55.6591 66.8831 56.1086 71.0059C56.1795 71.6642 56.2705 72.314 56.3587 72.958C56.5992 74.6859 56.8494 76.476 56.7085 78.3515C56.65 79.1354 56.8379 79.9998 57.0314 80.7406C57.1579 81.1987 57.3669 81.6366 57.5902 82.1014C57.8163 82.5691 58.0425 83.054 58.1901 83.5677C58.307 84.0143 58.3779 84.4589 58.4421 84.8844C58.537 85.4633 58.6213 86.0105 58.8274 86.5452C59.2155 87.539 59.7474 88.506 60.2054 89.3167C61.0881 90.8568 62.0694 92.0269 63.2156 92.8789C65.2846 94.4189 68.0092 94.992 70.4107 95.5066C71.2569 95.6858 72.13 95.8478 72.9561 95.8947C74.2134 95.3006 75.4247 94.6134 76.5652 93.8573C77.9816 92.9114 79.3654 91.565 80.6477 90.2578C82.134 88.735 83.3597 86.8481 84.5471 85.0253C84.8241 84.5998 85.1001 84.1791 85.3761 83.7622C85.5764 83.4651 85.6732 82.9889 85.7699 82.525ZM89.1644 61.4455C90.1198 53.8891 89.9521 46.2856 89.656 39.8428C87.9272 39.2764 86.182 38.7761 84.4302 38.3382C84.3593 41.5246 84.4244 44.7514 84.4887 47.8784C84.5529 50.8674 84.6238 53.9657 84.5711 57.0132C84.4244 64.8284 83.4364 70.8918 81.4469 76.0908C79.1162 82.204 75.2743 87.1451 70.5516 90.184C70.934 90.2866 71.3183 90.3834 71.7064 90.4571C73.4467 90.7983 74.7989 90.7188 75.8474 90.2099C76.8584 89.7164 77.6586 88.7992 78.4521 87.815C80.0746 85.8102 81.629 83.7095 83.0722 81.5667C86.1437 75.8819 88.1974 69.1199 89.1644 61.4455ZM103.12 58.3156C103.205 56.9222 103.287 55.6026 102.817 54.4478C102.185 52.902 100.607 51.8584 99.3045 51.1262C99.0074 50.9585 98.7046 50.7917 98.4027 50.6298C97.0562 49.9005 95.6657 49.1482 94.5579 47.9876C92.8032 46.139 92.0624 43.3675 92.6067 40.8749C91.9924 40.6487 91.3752 40.4369 90.7581 40.2251C91.0398 46.6211 91.1864 54.1066 90.2406 61.5806C89.3091 68.9435 87.3867 75.4765 84.5442 81.0636C86.1696 80.8173 87.7978 80.5556 89.4231 80.2969C91.3628 79.9883 93.3034 79.6769 95.2335 79.3884C96.3682 79.2149 97.5469 79.0444 98.5081 78.5039C99.108 78.1684 99.7837 77.5311 99.9744 76.7405C98.0117 76.0237 96.0596 75.2771 94.1381 74.498C93.8084 74.3629 93.6091 74.0332 93.635 73.6806L93.6676 73.2694C93.9263 69.9747 94.1966 66.5688 95.3954 63.3909C95.8075 62.3004 96.3365 61.2194 97.4175 60.6664C98.5694 60.0789 99.8392 60.3636 100.941 60.6789C101.676 60.8897 102.406 61.1226 103.137 61.3545C103.002 60.3377 103.061 59.3142 103.12 58.3156ZM108.415 77.9336C109.677 73.9518 110.626 69.8923 111.178 66.1155C107.72 64.5783 104.131 63.2769 100.492 62.239C99.6926 62.0071 98.7784 61.7924 98.1526 62.1154C97.5651 62.4125 97.2115 63.1791 96.9154 63.964C95.819 66.8649 95.5488 70.0926 95.2987 73.2167C99.5958 74.9417 104.001 76.5259 108.415 77.9336ZM112.398 64.8869C112.724 65.0345 112.919 65.3814 112.869 65.7369C112.286 70.0188 111.194 74.6715 109.709 79.2006C109.594 79.5446 109.28 79.7621 108.941 79.7621C108.86 79.7621 108.775 79.7468 108.692 79.7238C106.291 78.9686 103.892 78.1569 101.509 77.3021C101.194 78.3448 100.412 79.2974 99.2987 79.9174C98.0759 80.5997 96.6921 80.8115 95.4779 80.9936C93.5526 81.2811 91.6187 81.5897 89.6819 81.9011C88.9535 82.0161 88.2242 82.134 87.4949 82.2481C87.4451 82.433 87.401 82.6362 87.3598 82.848C87.2333 83.4383 87.0953 84.1024 86.7254 84.6583C86.4523 85.0694 86.182 85.4901 85.9051 85.9137C84.6794 87.8006 83.4067 89.7547 81.8024 91.3915C80.4617 92.7677 79.007 94.1784 77.4641 95.2095C77.2619 95.3389 77.0644 95.4568 76.8651 95.5861C76.8852 95.7769 76.8143 95.9771 76.6409 96.0998C76.0093 96.5445 75.3011 96.7879 74.5603 96.9058C73.8195 97.291 73.0586 97.6523 72.2795 97.9753C68.3292 99.6303 64.0062 100.474 59.709 100.474C57.6869 100.474 55.6706 100.289 53.6984 99.9121C51.7683 99.545 50.0922 98.81 48.4668 98.1046C47.6388 97.7434 46.7802 97.3696 45.8985 97.0524C42.689 95.8861 39.9319 94.2311 37.7009 92.1505C34.4301 89.0963 32.2729 85.217 30.0362 80.3228C24.7404 68.726 22.2478 57.3985 22.6263 46.6527C22.6417 46.2416 22.9617 45.9061 23.3671 45.8745C23.7821 45.8362 24.1491 46.1179 24.2315 46.5176C24.4462 47.5938 25.1602 48.6575 26.2364 49.5219C26.8411 50.0097 27.5234 50.4036 28.2201 50.7592C28.2843 50.6911 28.3667 50.6355 28.4578 50.5914C30.1186 49.8746 31.8647 49.4098 33.651 49.1923L33.3041 47.3494C33.1929 46.7322 33.0309 45.8946 33.3549 45.0954C33.8187 43.9349 35.0415 43.426 35.7641 43.1231C37.1604 42.5443 38.5596 41.8687 39.906 41.2161C41.1222 40.6248 42.3747 40.0191 43.6445 39.4757C43.6675 39.1029 43.7269 38.7024 43.7796 38.3056C43.8496 37.7709 43.9262 37.216 43.9119 36.8633C43.8879 36.4369 44.1965 36.0698 44.6229 36.0161C51.9849 35.1498 60.6971 34.3055 69.4821 34.6055C77.7228 34.8824 85.9319 36.5691 93.8765 39.6195C94.2819 39.7786 94.4937 40.2251 94.3518 40.6372C93.6436 42.7504 94.2023 45.2506 95.7366 46.8674C96.6652 47.8468 97.8823 48.5051 99.1751 49.2038C99.4808 49.3715 99.7952 49.5392 100.098 49.7126C101.632 50.5771 103.499 51.8258 104.318 53.8364C104.93 55.3323 104.833 56.8992 104.742 58.4181C104.66 59.6736 104.589 60.8552 104.913 61.9362C107.455 62.8006 109.962 63.7848 112.398 64.8869Z" fill="#00A5B5"/>
</g>
<path d="M71.3509 46.4792C76.4416 46.5233 80.5212 47.2028 80.4887 47.4404C80.4618 47.6992 76.3764 47.4318 71.3452 47.3935C66.3072 47.3379 62.2219 47.5382 62.1989 47.2727C62.172 47.0351 66.2632 46.4294 71.3509 46.4792Z" fill="#00A5B5"/>
<path d="M80.5057 50.2799C80.4856 50.4093 78.9542 50.2684 76.4855 50.0567C74.014 49.8477 70.6042 49.5861 66.8303 49.4567C63.0593 49.3331 59.6447 49.3599 57.1636 49.4098C54.6863 49.451 53.1463 49.4836 53.1348 49.3542C53.1348 49.2363 54.6595 48.9747 57.1281 48.7658C59.615 48.5549 63.0593 48.4198 66.8629 48.5492C70.6694 48.6776 74.0964 49.0427 76.5593 49.4184C79.0126 49.7979 80.5057 50.1534 80.5057 50.2799Z" fill="#00A5B5"/>
<path d="M61.7667 95.6417C61.7907 95.7538 61.0173 96.0356 59.7092 96.2416C58.4049 96.4467 56.5592 96.5262 54.5457 96.2675C52.5409 95.9972 50.7804 95.4481 49.5691 94.9095C48.3587 94.3834 47.6831 93.9138 47.7358 93.8046C47.8498 93.5554 50.789 94.875 54.6655 95.3599C58.54 95.8918 61.7198 95.3714 61.7667 95.6417Z" fill="#00A5B5"/>
<path d="M44.7052 89.2755C49.0081 91.2804 52.8932 91.7653 52.8491 92.047C52.8376 92.162 51.8496 92.1879 50.2712 91.9387C48.6995 91.6972 46.5423 91.1242 44.32 90.1016C42.1043 89.0791 40.2672 87.815 39.0558 86.7772C37.8455 85.7402 37.2187 84.9669 37.2982 84.8844C37.4842 84.6765 40.3812 87.3129 44.7052 89.2755Z" fill="#00A5B5"/>
</svg>
