<svg xmlns="http://www.w3.org/2000/svg" width="62" height="18" viewBox="0 0 62 18" fill="none"><g clip-path="url(#clip0_183_14498)"><path d="M5.66826 0L5.0595 0.907759C4.54439 1.67219 0.0020752 8.47241 0.0020752 11.3868C0.0020752 14.5719 2.5464 17.1678 5.66826 17.1678C8.79013 17.1678 11.3344 14.5719 11.3344 11.3868C11.3344 8.45649 6.79213 1.67219 6.27703 0.907759L5.66826 0V0Z" fill="#23307D"></path></g><g clip-path="url(#clip1_183_14498)"><path d="M22.6722 0L22.0634 0.907759C21.5483 1.67219 17.006 8.47241 17.006 11.3868C17.006 14.5719 19.5503 17.1678 22.6722 17.1678C25.794 17.1678 28.3384 14.5719 28.3384 11.3868C28.3384 8.45649 23.796 1.67219 23.2809 0.907759L22.6722 0V0Z" fill="#23307D"></path></g><g clip-path="url(#clip2_183_14498)"><path d="M39.2985 1.79694C39.768 2.50575 40.7841 4.07489 41.7551 5.82106C42.3451 6.88221 42.9083 7.99054 43.3213 8.99953C43.7466 10.0387 43.9646 10.86 43.9646 11.3868C43.9646 14.0386 41.8492 16.1678 39.2984 16.1678C36.7476 16.1678 34.6322 14.0386 34.6322 11.3868C34.6322 10.8645 34.8498 10.0456 35.2754 9.00648C35.6884 7.99798 36.2517 6.88897 36.8419 5.82669C37.8131 4.07865 38.8293 2.50634 39.2985 1.79694Z" fill="#23307D" stroke="#23307D" stroke-width="2"></path></g><g clip-path="url(#clip3_183_14498)"><path d="M56.3024 1.79694C56.7719 2.50575 57.788 4.07489 58.759 5.82106C59.3491 6.88221 59.9122 7.99054 60.3252 8.99953C60.7506 10.0387 60.9685 10.86 60.9685 11.3868C60.9685 14.0386 58.8531 16.1678 56.3023 16.1678C53.7515 16.1678 51.6361 14.0386 51.6361 11.3868C51.6361 10.8645 51.8537 10.0456 52.2793 9.00648C52.6924 7.99798 53.2556 6.88897 53.8458 5.82669C54.817 4.07865 55.8332 2.50634 56.3024 1.79694Z" stroke="#23307D" stroke-width="2"></path></g><defs><clipPath id="clip0_183_14498"><rect width="11.336" height="17.1678" fill="white"></rect></clipPath><clipPath id="clip1_183_14498"><rect width="11.336" height="17.1678" fill="white" transform="translate(17.0039)"></rect></clipPath><clipPath id="clip2_183_14498"><rect width="11.336" height="17.1678" fill="white" transform="translate(33.6301)"></rect></clipPath><clipPath id="clip3_183_14498"><rect width="11.336" height="17.1678" fill="white" transform="translate(50.634)"></rect></clipPath></defs></svg>